<svg xmlns="http://www.w3.org/2000/svg" viewBox="0 0 19.25 19.24"><title>Middel 2</title><g id="Laag_2" data-name="Laag 2"><g id="Layer_1" data-name="Layer 1"><path d="M9.6,0h0a9.62,9.62,0,0,0,.06,19.24h0A9.65,9.65,0,0,0,19.25,9.6,9.66,9.66,0,0,0,9.6,0ZM1,9.62A8.61,8.61,0,0,1,9.57,1h0a8.62,8.62,0,0,1,5.74,2.2L13.53,5l-.16-.67-.29.07L6.53,5.93l-2,2.22h0l1.11,4.66-2.49,2.5A8.6,8.6,0,0,1,1,9.62ZM11.88,6.81l.76-1.26,1.28,5.37-.73,1.36Zm-1.11-.08-4.54,1,.84-1,4.23-1Zm-5,2.18,5.31-1.22L12.34,13,7,14.24Zm10,6.78a8.6,8.6,0,0,1-6.11,2.55h0A8.58,8.58,0,0,1,3.88,16L5.94,14l.35,1.47,7.26-1.68v0h0L15,11.06,13.81,6.15,16.05,3.9a8.62,8.62,0,0,1,2.2,5.7A8.53,8.53,0,0,1,15.74,15.69Z"/></g></g></svg>