<svg xmlns="http://www.w3.org/2000/svg" viewBox="0 0 19.25 19.24"><title>Middel 4</title><g id="Laag_2" data-name="Laag 2"><g id="Layer_1" data-name="Layer 1"><path d="M9.6,0h0a9.62,9.62,0,0,0,.06,19.24h0A9.65,9.65,0,0,0,19.25,9.6,9.66,9.66,0,0,0,9.6,0Zm0,1h0a8.62,8.62,0,0,1,5.74,2.2L12,6.5c0-.16-.1-.31-.14-.46l0-.11c0-.13-.07-.26-.11-.4a1.44,1.44,0,0,0,.14-1.17,1.33,1.33,0,0,0-1.11-.81,22.64,22.64,0,0,0-2.33,0,1.36,1.36,0,0,0-1.11.79,1.38,1.38,0,0,0,.14,1.19l-.08.26C7.22,6.38,7,7,6.88,7.62a8.26,8.26,0,0,0-.3,1.8c0,.81,0,1.62,0,2.43V12L3.2,15.34A8.6,8.6,0,0,1,9.57,1Zm2.1,10.91c0,.47,0,.95,0,1.42a1.31,1.31,0,0,1-1.29,1.37,12.85,12.85,0,0,1-1.52,0,1.3,1.3,0,0,1-1.29-1.34V11.84c0-.79,0-1.6,0-2.39a7.17,7.17,0,0,1,.27-1.58c.15-.61.33-1.21.51-1.79l.12-.39A.66.66,0,0,0,8.35,5a.46.46,0,0,1-.08-.3.47.47,0,0,1,.24-.18l1.11,0,1.12,0a.39.39,0,0,1,.23.17.5.5,0,0,1-.09.32.66.66,0,0,0-.13.63c.06.17.11.35.16.53l0,.1c.1.34.2.69.34,1.11.05.13.09.27.13.41a9.27,9.27,0,0,1,.27,3h0v1.06Zm4.07,3.78a8.56,8.56,0,0,1-6.11,2.55h0A8.58,8.58,0,0,1,3.9,16.05l2.67-2.67A2.31,2.31,0,0,0,8.81,15.7c.27,0,.54,0,.81,0s.54,0,.81,0a2.31,2.31,0,0,0,2.24-2.36c0-.48,0-1,0-1.43v-1a10.28,10.28,0,0,0-.3-3.31L16.05,3.9a8.62,8.62,0,0,1,2.2,5.7A8.53,8.53,0,0,1,15.74,15.69Z"/></g></g></svg>