<svg xmlns="http://www.w3.org/2000/svg" viewBox="0 0 19.25 19.24"><title>Middel 1</title><g id="Laag_2" data-name="Laag 2"><g id="Layer_1" data-name="Layer 1"><path d="M9.6,0h0a9.62,9.62,0,0,0,.06,19.24h0A9.62,9.62,0,1,0,9.6,0Zm0,1h0a8.62,8.62,0,0,1,5.74,2.2L12,6.51a2.69,2.69,0,0,0-1.41.58,3.08,3.08,0,0,0,.44-1.56A3,3,0,0,0,9.9,3.14l-.27-.21-.28.21A3,3,0,0,0,8.2,5.52a3,3,0,0,0,.44,1.57,2.71,2.71,0,0,0-2.38-.52L6,6.66l0,.3a2.78,2.78,0,0,0,.33,1.61A2.81,2.81,0,0,0,7,9.43a2.53,2.53,0,0,0-.78.08L6,9.59l0,.31a2.78,2.78,0,0,0,.33,1.61,2.67,2.67,0,0,0,.75.84,2.4,2.4,0,0,0-.76.08l-.3.09v.08h0L3.2,15.34A8.6,8.6,0,0,1,9.57,1Zm0,14.33a3.25,3.25,0,0,0-.71-2.12l.71.21h0l.7-.21A3.37,3.37,0,0,0,9.62,15.33Zm-.91-.19L8.39,15a2.41,2.41,0,0,1-1.33-1,1.87,1.87,0,0,1-.23-.75,1.81,1.81,0,0,1,1.32.45A2.09,2.09,0,0,1,8.71,15.14Zm.91-2.74a3.22,3.22,0,0,0-.72-2.13l.72.21h0l.72-.21A3.28,3.28,0,0,0,9.62,12.4ZM9.34,7.92l.28.22.28-.22s.06-.06.1-.09a3.67,3.67,0,0,0-.38,1.63,3.8,3.8,0,0,0-.37-1.63ZM9.1,5.52a2.15,2.15,0,0,1,.52-1.41A2.17,2.17,0,0,1,9.62,7,2.2,2.2,0,0,1,9.1,5.52Zm-2,2.61a1.78,1.78,0,0,1-.23-.75,1.83,1.83,0,0,1,1.32.45,2.13,2.13,0,0,1,.56,1.45l-.32-.11A2.43,2.43,0,0,1,7.06,8.13Zm1.09,2.64a2.13,2.13,0,0,1,.56,1.45l-.32-.11a2.43,2.43,0,0,1-1.33-1,1.78,1.78,0,0,1-.23-.75A1.86,1.86,0,0,1,8.15,10.77ZM11.1,13.7a1.76,1.76,0,0,1,1.21-.46h.11a2,2,0,0,1-.23.75,2.41,2.41,0,0,1-1.34,1l-.32.11A2.09,2.09,0,0,1,11.1,13.7Zm-.25-1.59-.32.11a2.14,2.14,0,0,1,.57-1.45,1.83,1.83,0,0,1,1.22-.45h.1a1.93,1.93,0,0,1-.23.75A2.42,2.42,0,0,1,10.85,12.11Zm0-2.94-.32.11a2.14,2.14,0,0,1,.57-1.45,1.8,1.8,0,0,1,1.21-.45h.11a1.93,1.93,0,0,1-.23.75A2.42,2.42,0,0,1,10.85,9.17Zm4.89,6.52a8.6,8.6,0,0,1-6.11,2.55h0A8.58,8.58,0,0,1,3.9,16.05L6.05,13.9a3.49,3.49,0,0,0,.22.53,3.4,3.4,0,0,0,1.79,1.44l.68.22.88.26h0l.88-.26c.24-.07.46-.14.67-.22A3.33,3.33,0,0,0,13,14.43a2.66,2.66,0,0,0,.34-1.6l0-.31L13,12.43a2.4,2.4,0,0,0-.76-.08,2.65,2.65,0,0,0,.74-.84,2.71,2.71,0,0,0,.34-1.61l0-.31L13,9.51a2.53,2.53,0,0,0-.78-.08A2.66,2.66,0,0,0,13,8.57,2.71,2.71,0,0,0,13.31,7l0-.29,2.76-2.76a8.55,8.55,0,0,1-.31,11.78Z"/></g></g></svg>