<svg xmlns="http://www.w3.org/2000/svg" viewBox="0 0 19.25 19.24"><title>Middel 3</title><g id="Laag_2" data-name="Laag 2"><g id="Layer_1" data-name="Layer 1"><path d="M9.6,0h0a9.62,9.62,0,0,0,.06,19.24h0A9.62,9.62,0,1,0,9.6,0Zm6.14,15.69a8.6,8.6,0,0,1-6.11,2.55h0A8.62,8.62,0,0,1,9.57,1h0a8.66,8.66,0,0,1,8.65,8.6A8.53,8.53,0,0,1,15.74,15.69Z"/><path d="M11.66,8.56A12.11,12.11,0,0,0,8.84,3.92l-.45-.45L8.06,4c-.08.14-.52.81-.57.88-.43.64-.75,1.14-1,1.63-.9,1.6-2.72,5.58-.12,7.84a3.51,3.51,0,0,0,1,.61,7.3,7.3,0,0,0,.7.25h0a1.66,1.66,0,0,0,.54.19l.17,0h0l.5,0a3.9,3.9,0,0,0,2.61-.94c2.2-1.88,2.33-5.91,2.33-6.08l0-.63L13.64,8A14,14,0,0,0,11.66,8.56ZM7,13.61C5,11.83,6.56,8.4,7.34,7c.26-.47.56-.94,1-1.55l.24-.37A10,10,0,0,1,10.74,9l-.08,0a9.83,9.83,0,0,0-1,.54l-.14.09a7.25,7.25,0,0,0-.8.6l-.1.09A5,5,0,0,0,8,11L8,11a4.35,4.35,0,0,0-.46.77c-.1.23-.18.44-.25.65,0,.06,0,.12,0,.18a3.85,3.85,0,0,0-.09.41,1,1,0,0,0,0,.16,2.43,2.43,0,0,0,0,.46Zm4.25.16a3,3,0,0,1-2.49.67.93.93,0,0,1-.31-.14c-.63-.4-.37-1.35,0-2.08A6,6,0,0,1,11.5,9.7a13.18,13.18,0,0,1,1.69-.6C13.06,10.25,12.64,12.59,11.26,13.77Z"/></g></g></svg>