<svg xmlns="http://www.w3.org/2000/svg" viewBox="0 0 71.22 52.95"><defs><style>.cls-1{fill:#fff;}.cls-2{fill:#3e3e3f;}.cls-3{fill:#cfd3d4;}</style></defs><title>Middel 1</title><g id="Laag_2" data-name="Laag 2"><g id="Laag_1-2" data-name="Laag 1"><circle class="cls-1" cx="31.69" cy="6" r="6"/><path class="cls-2" d="M11.13,31.35l19.55-27a1,1,0,0,1,1.37-.19L55.89,24l2.61-.43L33.31,2.63a3,3,0,0,0-4.22.54L8.32,31.81Z"/><circle class="cls-3" cx="31.69" cy="6" r="2"/><path class="cls-1" d="M35.43,38a1.45,1.45,0,0,0-.49-.92,1.19,1.19,0,0,0-1.73.28,1.46,1.46,0,0,0-.15,1v0L35.43,38Z"/><path class="cls-1" d="M40.33,37.17a1.42,1.42,0,0,0-.47-.83,1.12,1.12,0,0,0-1-.24,1.07,1.07,0,0,0-.83.53,1.76,1.76,0,0,0-.14,1l0,.26c.18,1.09.67,1.56,1.48,1.43a1,1,0,0,0,.83-.54,1.63,1.63,0,0,0,.17-1c0-.06,0-.17,0-.33S40.35,37.24,40.33,37.17Z"/><path class="cls-1" d="M30.61,39.14c-.18-1.09-.68-1.57-1.48-1.44a1.1,1.1,0,0,0-.83.53,1.48,1.48,0,0,0-.19,1l.05.33.06.33a1.72,1.72,0,0,0,.48.89,1,1,0,0,0,1,.24,1.06,1.06,0,0,0,.84-.52,1.88,1.88,0,0,0,.14-1.06C30.63,39.33,30.62,39.25,30.61,39.14Z"/><path class="cls-1" d="M20.17,40.51a1.56,1.56,0,0,0-.51-.94,1.13,1.13,0,0,0-.91-.2,1.11,1.11,0,0,0-.81.49,1.45,1.45,0,0,0-.18,1l0,.33.06.33a1.45,1.45,0,0,0,.5.93,1.26,1.26,0,0,0,1.73-.28,1.56,1.56,0,0,0,.18-1c0-.06,0-.17-.05-.33Z"/><path class="cls-1" d="M15.2,41.33a1.52,1.52,0,0,0-.5-.94,1.12,1.12,0,0,0-.92-.21,1.18,1.18,0,0,0-.81.49,1.48,1.48,0,0,0-.17,1l0,.33.06.33a1.55,1.55,0,0,0,.5.94,1.14,1.14,0,0,0,.93.2,1.13,1.13,0,0,0,.8-.48A1.6,1.6,0,0,0,15.31,42a2.94,2.94,0,0,0-.05-.33A1.64,1.64,0,0,0,15.2,41.33Z"/><path class="cls-1" d="M57.63,34.35a1.4,1.4,0,0,0-.48-.92,1.19,1.19,0,0,0-1.73.28,1.53,1.53,0,0,0-.16,1v0l2.37-.39Z"/><path class="cls-1" d="M68,22.07,0,33.28,3.19,53l68-11.21ZM11.12,40.3l-.95,4.28a.34.34,0,0,1-.28.27l-.38.06a.33.33,0,0,1-.35-.17L6.9,41l0-.08a.17.17,0,0,1,0-.14A.15.15,0,0,1,7,40.7l.42-.07a.23.23,0,0,1,.24.11l1.87,3.19.76-3.62a.21.21,0,0,1,.18-.18l.43-.07a.16.16,0,0,1,.13,0,.2.2,0,0,1,.08.12Zm4.7,3.11a2,2,0,0,1-1.38.78,2,2,0,0,1-1.57-.3,2.08,2.08,0,0,1-.79-1.33L12,42.19l0-.38a2.07,2.07,0,0,1,.33-1.51,2,2,0,0,1,1.38-.78,1.93,1.93,0,0,1,1.56.3A2,2,0,0,1,16,41.15a3.08,3.08,0,0,1,.07.37l.06.37A2.12,2.12,0,0,1,15.82,43.41Zm5-.81a2,2,0,0,1-1.39.78,2,2,0,0,1-1.56-.3,2.1,2.1,0,0,1-.79-1.33L17,41.37,16.92,41a2.15,2.15,0,0,1,.33-1.52,2.07,2.07,0,0,1,1.39-.78,2,2,0,0,1,1.56.3A2.13,2.13,0,0,1,21,40.33c0,.07,0,.19.07.37a3.28,3.28,0,0,1,.05.38A2.09,2.09,0,0,1,20.79,42.6Zm3.59-4a.2.2,0,0,1-.13.08l-.52.08a1,1,0,0,0-.69.39,1,1,0,0,0-.15.79l.42,2.54a.19.19,0,0,1,0,.16.17.17,0,0,1-.14.07l-.42.07a.19.19,0,0,1-.15,0,.2.2,0,0,1-.08-.13l-.67-4.09a.22.22,0,0,1,0-.16.16.16,0,0,1,.13-.08l.4-.07a.19.19,0,0,1,.16,0,.18.18,0,0,1,.08.13l.07.38A1.3,1.3,0,0,1,23.79,38l.34-.06a.19.19,0,0,1,.15,0,.25.25,0,0,1,.08.14l.06.35A.16.16,0,0,1,24.38,38.56Zm6.84,2.27a1.63,1.63,0,0,1-1.26.82,1.71,1.71,0,0,1-1.53-.42l.06.36a.22.22,0,0,1,0,.16.21.21,0,0,1-.13.07l-.4.07a.19.19,0,0,1-.15,0,.18.18,0,0,1-.08-.14L26.76,36a.19.19,0,0,1,0-.15.17.17,0,0,1,.13-.08l.43-.07a.17.17,0,0,1,.14,0,.22.22,0,0,1,.08.13l.33,2A1.74,1.74,0,0,1,29.19,37a1.68,1.68,0,0,1,1.46.37,2.6,2.6,0,0,1,.74,1.41c0,.06,0,.14.05.25s0,.2,0,.27A2.5,2.5,0,0,1,31.22,40.83Zm5-.89a1.92,1.92,0,0,1-.59.58,2.44,2.44,0,0,1-1,.35,1.93,1.93,0,0,1-1.51-.31,2.32,2.32,0,0,1-.83-1.41l-.06-.29,0-.29A2.3,2.3,0,0,1,32.59,37a2,2,0,0,1,1.32-.78,1.91,1.91,0,0,1,1.59.37,2.49,2.49,0,0,1,.8,1.56l0,.15a.21.21,0,0,1,0,.15.22.22,0,0,1-.14.08l-3,.49v.08a1.67,1.67,0,0,0,.5.9,1,1,0,0,0,.9.25A1.25,1.25,0,0,0,35.2,40a1.37,1.37,0,0,0,.32-.4c0-.08.07-.13.1-.14a.27.27,0,0,1,.13,0l.43-.07a.22.22,0,0,1,.14,0,.2.2,0,0,1,.07.12A.77.77,0,0,1,36.22,39.94Zm5.29-.33a.22.22,0,0,1-.13.08l-.39.06a.22.22,0,0,1-.16,0,.22.22,0,0,1-.08-.14l0-.36a1.73,1.73,0,0,1-1.33.88,1.63,1.63,0,0,1-1.45-.36,2.59,2.59,0,0,1-.73-1.41l0-.26,0-.26a2.5,2.5,0,0,1,.24-1.56,1.63,1.63,0,0,1,1.26-.82,1.73,1.73,0,0,1,1.5.4l-.32-2a.2.2,0,0,1,0-.15.22.22,0,0,1,.13-.08l.42-.07a.19.19,0,0,1,.15,0,.25.25,0,0,1,.08.14l.94,5.74A.22.22,0,0,1,41.51,39.61Zm3.23-4.38a.21.21,0,0,1-.14.07l-.52.09a1,1,0,0,0-.69.39,1,1,0,0,0-.14.78l.41,2.55a.17.17,0,0,1,0,.15.22.22,0,0,1-.13.08l-.43.07a.21.21,0,0,1-.15,0,.22.22,0,0,1-.08-.14l-.67-4.09a.22.22,0,0,1,0-.16.22.22,0,0,1,.14-.08l.39-.06a.22.22,0,0,1,.16,0A.22.22,0,0,1,43,35l.06.38a1.32,1.32,0,0,1,1.11-.79l.34,0a.19.19,0,0,1,.15,0,.18.18,0,0,1,.08.13l.06.36A.2.2,0,0,1,44.74,35.23Zm.52-1.72a.16.16,0,0,1-.08-.13l-.08-.47a.19.19,0,0,1,.16-.24l.55-.09a.19.19,0,0,1,.16,0,.22.22,0,0,1,.08.13l.08.47a.19.19,0,0,1,0,.15.18.18,0,0,1-.14.08l-.54.09A.19.19,0,0,1,45.26,33.51Zm1.64,5.21a.18.18,0,0,1-.13.08l-.42.07a.19.19,0,0,1-.15,0,.22.22,0,0,1-.08-.14l-.67-4.1a.2.2,0,0,1,0-.15.22.22,0,0,1,.13-.08L46,34.3a.16.16,0,0,1,.15,0,.17.17,0,0,1,.08.13l.67,4.1A.19.19,0,0,1,46.9,38.72Zm.46-5.7-.08-.47a.2.2,0,0,1,0-.15.19.19,0,0,1,.14-.09l.55-.09a.19.19,0,0,1,.16,0,.22.22,0,0,1,.08.13l.08.47a.19.19,0,0,1,0,.15.19.19,0,0,1-.14.09l-.55.09a.19.19,0,0,1-.15,0A.17.17,0,0,1,47.36,33ZM48,40.3l-.17,0a.24.24,0,0,1-.15,0,.17.17,0,0,1-.08-.13l0-.3a.21.21,0,0,1,0-.15.22.22,0,0,1,.14-.08l.12,0c.28,0,.46-.15.52-.31a1.14,1.14,0,0,0,0-.66l-.72-4.39a.19.19,0,0,1,.16-.24l.43-.06a.19.19,0,0,1,.15,0,.17.17,0,0,1,.08.13l.72,4.41A1.35,1.35,0,0,1,48,40.3Zm5.67-7-.95,4.28a.33.33,0,0,1-.29.27l-.37.06a.32.32,0,0,1-.35-.16L49.4,34l0-.09a.2.2,0,0,1,0-.13.14.14,0,0,1,.12-.08l.41-.07a.24.24,0,0,1,.24.12L52.05,37l.75-3.63a.26.26,0,0,1,.19-.18l.42-.07a.28.28,0,0,1,.13,0,.17.17,0,0,1,.08.13Zm4.81,3a2.15,2.15,0,0,1-.59.57,2.5,2.5,0,0,1-1,.35,1.91,1.91,0,0,1-1.52-.31,2.32,2.32,0,0,1-.83-1.41l0-.29,0-.29a2.27,2.27,0,0,1,.35-1.58,1.88,1.88,0,0,1,1.31-.79,1.91,1.91,0,0,1,1.59.37,2.45,2.45,0,0,1,.8,1.56l0,.15a.2.2,0,0,1,0,.15.22.22,0,0,1-.13.08l-3,.49,0,.08a1.66,1.66,0,0,0,.49.9,1,1,0,0,0,.9.25,1.22,1.22,0,0,0,.63-.26,1.37,1.37,0,0,0,.32-.4.5.5,0,0,1,.1-.14.27.27,0,0,1,.14,0l.42-.07a.22.22,0,0,1,.14,0,.14.14,0,0,1,.07.11A.78.78,0,0,1,58.43,36.31Zm5.43-.37a.17.17,0,0,1-.13.08l-.44.07a.21.21,0,0,1-.15,0,.2.2,0,0,1-.08-.13l-.39-2.4a1.43,1.43,0,0,0-.45-.9,1.28,1.28,0,0,0-1.73.29,1.31,1.31,0,0,0-.16,1l.39,2.39a.16.16,0,0,1,0,.15.14.14,0,0,1-.13.08l-.43.08a.24.24,0,0,1-.15,0,.17.17,0,0,1-.08-.13l-.68-4.1a.29.29,0,0,1,0-.16.19.19,0,0,1,.13-.07l.41-.07a.19.19,0,0,1,.15,0,.22.22,0,0,1,.08.13l.06.39a1.72,1.72,0,0,1,.51-.59,1.9,1.9,0,0,1,.83-.32A1.67,1.67,0,0,1,62.8,32a2.07,2.07,0,0,1,.69,1.34l.4,2.44A.19.19,0,0,1,63.86,35.94Z"/></g></g></svg>