<svg xmlns="http://www.w3.org/2000/svg" viewBox="0 0 71.22 52.95"><defs><style>.cls-1{fill:#fff;}.cls-2{fill:#3e3e3f;}.cls-3{fill:#cfd3d4;}</style></defs><title>Middel 3</title><g id="Laag_2" data-name="Laag 2"><g id="Laag_1-2" data-name="Laag 1"><circle class="cls-1" cx="31.69" cy="6" r="6"/><path class="cls-2" d="M11.13,31.35l19.55-27a1,1,0,0,1,1.37-.19L55.89,24l2.61-.43L33.31,2.63a3,3,0,0,0-4.22.54L8.32,31.81Z"/><circle class="cls-3" cx="31.69" cy="6" r="2"/><path class="cls-1" d="M12.14,41.54a1.54,1.54,0,0,0-.49-.91,1.12,1.12,0,0,0-.89-.2,1.1,1.1,0,0,0-.79.48,1.45,1.45,0,0,0-.16,1l0,.32.06.32a1.44,1.44,0,0,0,.49.91,1.08,1.08,0,0,0,.89.19,1.06,1.06,0,0,0,.78-.47,1.45,1.45,0,0,0,.17-1,1.89,1.89,0,0,0,0-.32Z"/><path class="cls-1" d="M48.13,35.93c-.18-1.06-.66-1.52-1.44-1.39a1,1,0,0,0-.81.52,1.66,1.66,0,0,0-.16,1l0,.32.07.32a1.38,1.38,0,0,0,.46.81,1,1,0,0,0,.92.23A1,1,0,0,0,48,37.2a1.76,1.76,0,0,0,.14-1C48.15,36.12,48.14,36,48.13,35.93Z"/><path class="cls-1" d="M43.11,36.41a1.41,1.41,0,0,0-.47-.9,1.09,1.09,0,0,0-.9-.22,1,1,0,0,0-.78.5,1.5,1.5,0,0,0-.15,1v0l2.3-.38Z"/><path class="cls-1" d="M27,39.07a1.46,1.46,0,0,0-.47-.9,1.1,1.1,0,0,0-.91-.22,1,1,0,0,0-.77.5,1.39,1.39,0,0,0-.15,1v0l2.3-.38Z"/><path class="cls-1" d="M68,22.07,0,33.28,3.19,53l68-11.21ZM8,44.31a1.57,1.57,0,0,1-1.22.77,1.63,1.63,0,0,1-1.47-.4l.32,2a.22.22,0,0,1,0,.14.17.17,0,0,1-.13.08l-.41.07a.19.19,0,0,1-.15,0,.17.17,0,0,1-.07-.13l-.92-5.58A.17.17,0,0,1,4,41,.2.2,0,0,1,4.08,41l.38-.06a.19.19,0,0,1,.15,0,.2.2,0,0,1,.08.13l.06.37A1.6,1.6,0,0,1,6,40.55a1.62,1.62,0,0,1,1.41.34,2.38,2.38,0,0,1,.71,1.35,1.81,1.81,0,0,1,.06.28,2.16,2.16,0,0,1,0,.29A2.31,2.31,0,0,1,8,44.31Zm4.75-.75a1.9,1.9,0,0,1-1.34.76A2,2,0,0,1,9.88,44a2.12,2.12,0,0,1-.77-1.3L9,42.38,9,42a2.06,2.06,0,0,1,.32-1.47,1.9,1.9,0,0,1,1.34-.76,1.89,1.89,0,0,1,1.51.29,2,2,0,0,1,.78,1.29c0,.06,0,.18.07.36s0,.3.05.36A2,2,0,0,1,12.74,43.56Zm5.42-.5a.2.2,0,0,1-.13.08l-.39.07a.19.19,0,0,1-.15,0,.2.2,0,0,1-.08-.13l-.06-.37a1.54,1.54,0,0,1-.49.58,1.81,1.81,0,0,1-.8.3,1.53,1.53,0,0,1-1.32-.31,2.12,2.12,0,0,1-.67-1.3l-.39-2.37a.23.23,0,0,1,0-.14.17.17,0,0,1,.13-.08l.42-.07a.17.17,0,0,1,.14,0,.2.2,0,0,1,.08.13l.38,2.32c.14.84.57,1.2,1.3,1.08a1.15,1.15,0,0,0,.79-.48,1.28,1.28,0,0,0,.15-1l-.38-2.32a.2.2,0,0,1,0-.15.17.17,0,0,1,.13-.07l.42-.07a.16.16,0,0,1,.14,0,.2.2,0,0,1,.08.13l.65,4A.22.22,0,0,1,18.16,43.06Zm3.12-4.25a.17.17,0,0,1-.13.07l-.5.09a1,1,0,0,0-.68.38,1,1,0,0,0-.14.76l.41,2.47a.15.15,0,0,1,0,.14.17.17,0,0,1-.13.08l-.41.07a.19.19,0,0,1-.15,0,.2.2,0,0,1-.08-.13l-.65-4a.2.2,0,0,1,0-.15.17.17,0,0,1,.13-.08l.38-.07a.23.23,0,0,1,.16,0,.22.22,0,0,1,.08.13l.06.37a1.28,1.28,0,0,1,1.08-.76l.33-.06a.21.21,0,0,1,.15,0,.21.21,0,0,1,.07.13l.06.35A.17.17,0,0,1,21.28,38.81ZM27.77,41a1.9,1.9,0,0,1-.57.56,2.2,2.2,0,0,1-.92.34,1.83,1.83,0,0,1-1.47-.3A2.25,2.25,0,0,1,24,40.2L24,39.91l0-.27a2.21,2.21,0,0,1,.34-1.54,2.06,2.06,0,0,1,2.81-.41,2.37,2.37,0,0,1,.78,1.51l0,.15a.17.17,0,0,1,0,.14.17.17,0,0,1-.13.08l-2.9.48v.08a1.62,1.62,0,0,0,.48.87,1,1,0,0,0,.88.25,1.15,1.15,0,0,0,.6-.27,1.1,1.1,0,0,0,.32-.38.85.85,0,0,1,.09-.14.28.28,0,0,1,.13,0l.42-.07a.19.19,0,0,1,.13,0,.14.14,0,0,1,.07.11A.71.71,0,0,1,27.77,41ZM33,40.61a.16.16,0,0,1-.13.07l-.42.07a.2.2,0,0,1-.15,0,.19.19,0,0,1-.07-.13l-.39-2.32a1.35,1.35,0,0,0-.44-.88,1.09,1.09,0,0,0-.89-.19,1.13,1.13,0,0,0-.78.47,1.29,1.29,0,0,0-.16,1L30,41a.17.17,0,0,1,0,.14.17.17,0,0,1-.13.08l-.42.07a.2.2,0,0,1-.15,0,.16.16,0,0,1-.07-.13l-.66-4a.17.17,0,0,1,0-.14.17.17,0,0,1,.13-.08l.39-.07a.19.19,0,0,1,.15,0,.18.18,0,0,1,.08.13l.06.37a1.72,1.72,0,0,1,.5-.57,1.76,1.76,0,0,1,.8-.3,1.61,1.61,0,0,1,1.34.3,2.07,2.07,0,0,1,.67,1.3l.39,2.37A.2.2,0,0,1,33,40.61Zm3.62-.6a.22.22,0,0,1-.13.08l-.58.09c-.88.15-1.41-.27-1.57-1.25L34,36.71l-.65.11a.19.19,0,0,1-.15,0,.22.22,0,0,1-.08-.13l0-.29a.2.2,0,0,1,0-.15.19.19,0,0,1,.13-.07L33.9,36l-.23-1.4a.19.19,0,0,1,0-.15.22.22,0,0,1,.13-.08l.4-.06a.17.17,0,0,1,.14,0,.17.17,0,0,1,.08.13l.23,1.4,1-.17a.19.19,0,0,1,.15,0,.2.2,0,0,1,.08.13l0,.28a.24.24,0,0,1,0,.15.2.2,0,0,1-.13.08l-1,.17.36,2.16a1.19,1.19,0,0,0,.25.61.53.53,0,0,0,.5.13l.51-.08a.19.19,0,0,1,.15,0,.2.2,0,0,1,.08.13l0,.3A.19.19,0,0,1,36.66,40Zm2.68-4.18a.21.21,0,0,1-.13.07L38.7,36a1,1,0,0,0-.67.38,1,1,0,0,0-.14.76l.41,2.47a.15.15,0,0,1,0,.14.17.17,0,0,1-.13.08l-.41.07a.19.19,0,0,1-.15,0,.2.2,0,0,1-.08-.13l-.65-4a.19.19,0,0,1,0-.15.17.17,0,0,1,.13-.08l.39-.07a.21.21,0,0,1,.15,0,.22.22,0,0,1,.08.13l.06.37a1.28,1.28,0,0,1,1.08-.76l.33-.06a.2.2,0,0,1,.15,0,.21.21,0,0,1,.07.13l.06.35A.17.17,0,0,1,39.34,35.83Zm4.54,2.47a1.79,1.79,0,0,1-.57.56,2.3,2.3,0,0,1-.92.35,1.87,1.87,0,0,1-1.47-.31,2.19,2.19,0,0,1-.8-1.36l-.06-.28L40,37a2.22,2.22,0,0,1,.34-1.54,1.79,1.79,0,0,1,1.27-.76,1.81,1.81,0,0,1,1.55.35A2.41,2.41,0,0,1,44,36.54l0,.15a.23.23,0,0,1,0,.14.17.17,0,0,1-.13.08l-2.9.48v.08a1.57,1.57,0,0,0,.49.87,1,1,0,0,0,.87.25,1.27,1.27,0,0,0,.61-.26,1.18,1.18,0,0,0,.31-.39.85.85,0,0,1,.09-.14l.14,0,.41-.07a.19.19,0,0,1,.13,0,.16.16,0,0,1,.07.11A.71.71,0,0,1,43.88,38.3Zm4.85-.71a1.61,1.61,0,0,1-1.23.77A1.64,1.64,0,0,1,46,38l.32,1.94a.19.19,0,0,1,0,.15.2.2,0,0,1-.12.08l-.41.07a.24.24,0,0,1-.15,0,.2.2,0,0,1-.08-.12l-.92-5.58a.21.21,0,0,1,0-.15.21.21,0,0,1,.13-.07l.39-.07a.21.21,0,0,1,.15,0,.19.19,0,0,1,.07.12l.06.37a1.64,1.64,0,0,1,1.27-.87,1.62,1.62,0,0,1,1.42.34,2.44,2.44,0,0,1,.71,1.35c0,.06,0,.15,0,.28a2.4,2.4,0,0,1,0,.29A2.45,2.45,0,0,1,48.73,37.59Zm3.42-3.87a.23.23,0,0,1-.14.07l-.5.08a1,1,0,0,0-.67.39,1,1,0,0,0-.14.76l.41,2.46a.19.19,0,0,1,0,.15.22.22,0,0,1-.13.08l-.41.07a.16.16,0,0,1-.15,0,.17.17,0,0,1-.08-.12l-.65-4a.22.22,0,0,1,0-.16.2.2,0,0,1,.13-.08l.38-.06a.16.16,0,0,1,.15,0,.18.18,0,0,1,.09.13l.06.37a1.26,1.26,0,0,1,1.08-.77l.33,0a.17.17,0,0,1,.14,0,.2.2,0,0,1,.08.13l.06.34A.19.19,0,0,1,52.15,33.72Zm.5-1.67a.17.17,0,0,1-.08-.13l-.08-.45a.19.19,0,0,1,0-.15.18.18,0,0,1,.13-.08l.53-.09a.19.19,0,0,1,.15,0,.22.22,0,0,1,.09.14l.07.45a.19.19,0,0,1,0,.15.25.25,0,0,1-.14.08l-.53.08A.17.17,0,0,1,52.65,32.05Zm1.6,5.06a.17.17,0,0,1-.13.07l-.41.07a.17.17,0,0,1-.14,0,.2.2,0,0,1-.08-.13l-.66-4a.17.17,0,0,1,0-.14.2.2,0,0,1,.13-.08l.41-.07a.17.17,0,0,1,.14,0,.18.18,0,0,1,.08.13l.66,4A.19.19,0,0,1,54.25,37.11Zm4.31-1.22a1.46,1.46,0,0,1-.54.57,2.67,2.67,0,0,1-.94.32,2.3,2.3,0,0,1-1,0,1.82,1.82,0,0,1-.67-.34.7.7,0,0,1-.26-.37.15.15,0,0,1,0-.14.25.25,0,0,1,.12-.07l.38-.06a.2.2,0,0,1,.17.06,1.8,1.8,0,0,0,.49.3,1.36,1.36,0,0,0,.65,0,1.34,1.34,0,0,0,.68-.29.54.54,0,0,0,.2-.52.48.48,0,0,0-.17-.31.92.92,0,0,0-.42-.17c-.2,0-.48-.06-.85-.08a2.08,2.08,0,0,1-1.11-.29,1.07,1.07,0,0,1-.44-.73,1.21,1.21,0,0,1,.09-.64,1.49,1.49,0,0,1,.48-.56,1.87,1.87,0,0,1,.85-.32,2.25,2.25,0,0,1,.94,0,1.82,1.82,0,0,1,.64.32.77.77,0,0,1,.25.37.17.17,0,0,1,0,.14.21.21,0,0,1-.13.07l-.35.06a.2.2,0,0,1-.18-.06L57.16,33a1,1,0,0,0-.3-.11,1.51,1.51,0,0,0-.47,0,1.12,1.12,0,0,0-.6.27.59.59,0,0,0-.14.49.5.5,0,0,0,.14.28.88.88,0,0,0,.4.17,7.83,7.83,0,0,0,.8.08,2.3,2.3,0,0,1,1.21.3,1.06,1.06,0,0,1,.46.74A1.1,1.1,0,0,1,58.56,35.89Zm4.52-.75a1.88,1.88,0,0,1-.57.55,2.3,2.3,0,0,1-.92.35,1.89,1.89,0,0,1-1.47-.31,2.19,2.19,0,0,1-.8-1.36l-.06-.28,0-.28a2.27,2.27,0,0,1,.34-1.54,2.07,2.07,0,0,1,2.82-.41,2.41,2.41,0,0,1,.77,1.51l0,.15a.28.28,0,0,1,0,.15.19.19,0,0,1-.13.07l-2.9.48v.08a1.57,1.57,0,0,0,.49.87,1,1,0,0,0,.87.25,1.18,1.18,0,0,0,.92-.65.85.85,0,0,1,.09-.14l.14,0,.41-.07a.19.19,0,0,1,.13,0,.16.16,0,0,1,.07.11A.74.74,0,0,1,63.08,35.14Zm4.46-.73A1.38,1.38,0,0,1,67,35a2.55,2.55,0,0,1-.94.33,2.28,2.28,0,0,1-1,0,1.68,1.68,0,0,1-.67-.33.7.7,0,0,1-.26-.37.15.15,0,0,1,0-.14.25.25,0,0,1,.12-.07l.38-.06a.2.2,0,0,1,.17.06,1.8,1.8,0,0,0,.49.3,1.36,1.36,0,0,0,.65,0,1.38,1.38,0,0,0,.68-.29.54.54,0,0,0,.2-.52.45.45,0,0,0-.17-.31.92.92,0,0,0-.42-.17c-.2,0-.48-.06-.85-.08L64.29,33a1.09,1.09,0,0,1-.44-.73,1.21,1.21,0,0,1,.09-.64,1.49,1.49,0,0,1,.48-.56,1.87,1.87,0,0,1,.85-.32,2.1,2.1,0,0,1,.94,0,1.67,1.67,0,0,1,.64.32.73.73,0,0,1,.25.37.17.17,0,0,1,0,.14.33.33,0,0,1-.13.07l-.35.06a.2.2,0,0,1-.18-.06l-.27-.21a.82.82,0,0,0-.3-.11,1.25,1.25,0,0,0-.47,0,1,1,0,0,0-.6.27.58.58,0,0,0-.14.49.5.5,0,0,0,.14.28.79.79,0,0,0,.4.16,5.43,5.43,0,0,0,.8.09,2.41,2.41,0,0,1,1.21.29,1.16,1.16,0,0,1,.36,1.44Z"/><path class="cls-1" d="M7.39,42.65c-.17-1-.65-1.52-1.44-1.39a1,1,0,0,0-.8.53,1.61,1.61,0,0,0-.17,1l0,.32.06.33a1.5,1.5,0,0,0,.46.81,1.05,1.05,0,0,0,.93.22,1,1,0,0,0,.81-.51,1.74,1.74,0,0,0,.13-1A1.49,1.49,0,0,0,7.39,42.65Z"/><path class="cls-1" d="M62.31,33.24a1.36,1.36,0,0,0-.47-.89,1.16,1.16,0,0,0-1.68.27,1.5,1.5,0,0,0-.15,1v0l2.3-.38Z"/></g></g></svg>