<svg xmlns="http://www.w3.org/2000/svg" viewBox="0 0 71.22 52.95"><defs><style>.cls-1{fill:#fff;}.cls-2{fill:#3e3e3f;}.cls-3{fill:#cfd3d4;}</style></defs><title>Middel 2</title><g id="Laag_2" data-name="Laag 2"><g id="Laag_1-2" data-name="Laag 1"><circle class="cls-1" cx="31.69" cy="6" r="6"/><path class="cls-2" d="M11.13,31.35l19.55-27a1,1,0,0,1,1.37-.19L55.89,24l2.61-.43L33.31,2.63a3,3,0,0,0-4.22.54L8.32,31.81Z"/><circle class="cls-3" cx="31.69" cy="6" r="2"/><path class="cls-1" d="M58.59,34.05a1.38,1.38,0,0,0-.47-.89,1.09,1.09,0,0,0-.9-.23,1.08,1.08,0,0,0-.78.51,1.42,1.42,0,0,0-.14,1v0l2.3-.39Z"/><path class="cls-1" d="M46.65,36.41l-.95.3a2.3,2.3,0,0,0-.85.44.58.58,0,0,0-.22.54.59.59,0,0,0,.36.47,1.22,1.22,0,0,0,.69.08,1.2,1.2,0,0,0,.83-.51,1.48,1.48,0,0,0,.18-1.09Z"/><path class="cls-1" d="M29.64,38.9a1.47,1.47,0,0,0-.5-.91,1.07,1.07,0,0,0-.89-.2,1.1,1.1,0,0,0-.78.48,1.41,1.41,0,0,0-.17,1l.05.32.06.32a1.41,1.41,0,0,0,.49.91,1.08,1.08,0,0,0,.89.2,1.1,1.1,0,0,0,.78-.48,1.42,1.42,0,0,0,.17-1c0-.05,0-.16,0-.32Z"/><path class="cls-1" d="M42.16,37.14c-.17-1.06-.65-1.52-1.43-1.39a1,1,0,0,0-.81.52,1.66,1.66,0,0,0-.16,1l0,.32.07.32a1.38,1.38,0,0,0,.46.81,1.21,1.21,0,0,0,1.73-.28,1.78,1.78,0,0,0,.14-1C42.19,37.33,42.18,37.24,42.16,37.14Z"/><path class="cls-1" d="M68,22.07,0,33.28,3.19,53l68-11.21ZM11.27,40.67a.18.18,0,0,1-.13.08l-1.08.18.58,3.5a.19.19,0,0,1,0,.15.22.22,0,0,1-.13.08l-.4.06a.17.17,0,0,1-.14,0,.17.17,0,0,1-.08-.13l-.58-3.5-.72.12a.17.17,0,0,1-.14,0A.18.18,0,0,1,8.34,41l-.05-.29a.17.17,0,0,1,0-.14.18.18,0,0,1,.13-.08l.71-.12L9.1,40a1.28,1.28,0,0,1,1.2-1.66l.5-.09a.19.19,0,0,1,.15,0,.22.22,0,0,1,.08.13l.05.29a.22.22,0,0,1,0,.14.2.2,0,0,1-.13.08l-.49.08a.67.67,0,0,0-.5.29,1,1,0,0,0,0,.62l.06.38L11,40.08a.21.21,0,0,1,.15,0,.19.19,0,0,1,.07.13l.05.29A.17.17,0,0,1,11.27,40.67Zm4.48,2.66a1.94,1.94,0,0,1-1.35.76,1.93,1.93,0,0,1-1.51-.28,2,2,0,0,1-.78-1.3L12,42.15l0-.36a2.07,2.07,0,0,1,.32-1.47,1.9,1.9,0,0,1,1.34-.76,1.94,1.94,0,0,1,1.51.28,2.09,2.09,0,0,1,.78,1.29l.06.36.06.37A2,2,0,0,1,15.75,43.33Zm3.47-3.92a.19.19,0,0,1-.13.07l-.5.08a1,1,0,0,0-.67.39,1,1,0,0,0-.14.76l.41,2.46a.16.16,0,0,1,0,.15.2.2,0,0,1-.13.08l-.41.07a.19.19,0,0,1-.15,0,.17.17,0,0,1-.07-.13l-.67-4a.24.24,0,0,1,0-.15.18.18,0,0,1,.13-.08l.39-.07a.16.16,0,0,1,.15,0,.17.17,0,0,1,.08.13l.07.37a1.26,1.26,0,0,1,1.08-.77l.32-.05a.19.19,0,0,1,.15,0,.2.2,0,0,1,.08.13l.06.34A.24.24,0,0,1,19.22,39.41Zm6.55,2a1.68,1.68,0,0,1-.54.64,2.24,2.24,0,0,1-1,.39,1.94,1.94,0,0,1-1.49-.27A2.09,2.09,0,0,1,22,40.84l-.07-.33-.05-.34a2.07,2.07,0,0,1,.31-1.51,1.93,1.93,0,0,1,1.32-.74,2.17,2.17,0,0,1,1.06,0,1.61,1.61,0,0,1,.71.43,1.2,1.2,0,0,1,.33.6.12.12,0,0,1,0,.14.2.2,0,0,1-.13.08l-.4.06a.18.18,0,0,1-.13,0,.33.33,0,0,1-.11-.12,1.17,1.17,0,0,0-.5-.51,1.25,1.25,0,0,0-.68-.06,1.08,1.08,0,0,0-.77.46,1.47,1.47,0,0,0-.17,1l0,.31.06.28a1.51,1.51,0,0,0,.49.94,1.16,1.16,0,0,0,.88.18,1.31,1.31,0,0,0,.63-.28,1.16,1.16,0,0,0,.3-.65.35.35,0,0,1,.07-.15.17.17,0,0,1,.11-.06l.41-.06a.21.21,0,0,1,.15,0,.16.16,0,0,1,.07.13A1.26,1.26,0,0,1,25.77,41.42Zm4.47-.5a2,2,0,0,1-1.34.76,2,2,0,0,1-1.52-.29,2.07,2.07,0,0,1-.77-1.29l-.07-.36-.05-.36a2,2,0,0,1,.32-1.47,2.21,2.21,0,0,1,2.85-.48,2,2,0,0,1,.77,1.29,3.22,3.22,0,0,1,.07.36,3.12,3.12,0,0,1,.05.36A2,2,0,0,1,30.24,40.92ZM38.11,40a.2.2,0,0,1-.13.08l-.39.06a.19.19,0,0,1-.15,0,.2.2,0,0,1-.08-.13L37,37.63a1.36,1.36,0,0,0-.43-.89,1,1,0,0,0-.76-.17,1,1,0,0,0-.64.4A1.39,1.39,0,0,0,35,38l.4,2.35a.22.22,0,0,1,0,.14.2.2,0,0,1-.13.08l-.4.07a.21.21,0,0,1-.15,0,.21.21,0,0,1-.07-.13l-.4-2.35a1.32,1.32,0,0,0-.43-.9A1,1,0,0,0,33,37a.94.94,0,0,0-.63.4,1.28,1.28,0,0,0-.13,1l.39,2.36a.19.19,0,0,1,0,.15.2.2,0,0,1-.13.08l-.4.07A.24.24,0,0,1,32,41a.2.2,0,0,1-.08-.13l-.66-4a.19.19,0,0,1,0-.15.22.22,0,0,1,.13-.08l.38-.06a.21.21,0,0,1,.15,0,.19.19,0,0,1,.07.13l.05.29a1.47,1.47,0,0,1,1.12-.77,1.39,1.39,0,0,1,1.45.55,1.46,1.46,0,0,1,.48-.65,1.54,1.54,0,0,1,.79-.35,1.51,1.51,0,0,1,1.21.28,2,2,0,0,1,.66,1.29l.4,2.42A.19.19,0,0,1,38.11,40Zm4.66-1.21a1.84,1.84,0,0,1-2.69.38l.32,1.94a.24.24,0,0,1,0,.15.2.2,0,0,1-.13.08l-.41.07a.19.19,0,0,1-.15,0,.2.2,0,0,1-.08-.12l-.92-5.58a.17.17,0,0,1,0-.14.17.17,0,0,1,.13-.08l.38-.06a.19.19,0,0,1,.15,0,.2.2,0,0,1,.08.13l.06.36A1.61,1.61,0,0,1,40.79,35a1.59,1.59,0,0,1,1.41.33,2.32,2.32,0,0,1,.71,1.35A2.13,2.13,0,0,1,43,37a2.69,2.69,0,0,1,0,.29A2.45,2.45,0,0,1,42.77,38.79Zm5-.39a.16.16,0,0,1-.13.07l-.38.07a.19.19,0,0,1-.15,0,.22.22,0,0,1-.08-.13L46.93,38a1.36,1.36,0,0,1-.46.54,1.93,1.93,0,0,1-.87.33,1.62,1.62,0,0,1-.79,0,1.41,1.41,0,0,1-.63-.36,1.15,1.15,0,0,1,0-1.59,2.61,2.61,0,0,1,1.16-.68l1.22-.38,0-.24c-.09-.58-.47-.81-1.12-.7a1.08,1.08,0,0,0-.58.26,1,1,0,0,0-.29.42c0,.06,0,.1-.05.12a.11.11,0,0,1-.1,0l-.36.06a.18.18,0,0,1-.14,0,.19.19,0,0,1-.07-.12.88.88,0,0,1,.11-.49,1.44,1.44,0,0,1,.49-.54,2.18,2.18,0,0,1,.89-.34,1.82,1.82,0,0,1,1.43.22,1.54,1.54,0,0,1,.59,1l.45,2.72A.2.2,0,0,1,47.73,38.4Zm5.1-.85a.22.22,0,0,1-.13.08l-.42.07a.19.19,0,0,1-.15,0,.22.22,0,0,1-.08-.13l-.38-2.33a1.35,1.35,0,0,0-.45-.87,1.06,1.06,0,0,0-.89-.19,1.13,1.13,0,0,0-.78.47,1.34,1.34,0,0,0-.16,1l.39,2.33a.17.17,0,0,1,0,.14.22.22,0,0,1-.13.08l-.42.07a.19.19,0,0,1-.15,0,.22.22,0,0,1-.08-.13l-.66-4a.17.17,0,0,1,0-.14.18.18,0,0,1,.13-.08l.4-.07a.17.17,0,0,1,.14,0,.18.18,0,0,1,.08.13l.06.37a1.84,1.84,0,0,1,.5-.57,1.89,1.89,0,0,1,.8-.31,1.58,1.58,0,0,1,1.34.31,2,2,0,0,1,.67,1.3l.4,2.36A.19.19,0,0,1,52.83,37.55Zm.38-5.38a.18.18,0,0,1-.08-.13l-.08-.46a.21.21,0,0,1,0-.15.22.22,0,0,1,.13-.08l.53-.09a.19.19,0,0,1,.15,0,.18.18,0,0,1,.09.13l.07.45A.19.19,0,0,1,54,32a.25.25,0,0,1-.14.08l-.53.09A.17.17,0,0,1,53.21,32.17Zm1.6,5a.2.2,0,0,1-.12.08l-.41.06a.17.17,0,0,1-.14,0,.17.17,0,0,1-.08-.13l-.67-4a.23.23,0,0,1,0-.14.2.2,0,0,1,.13-.08l.4-.07a.17.17,0,0,1,.15,0,.16.16,0,0,1,.07.12l.67,4A.16.16,0,0,1,54.81,37.22ZM59.37,36a1.88,1.88,0,0,1-.57.55,2.21,2.21,0,0,1-.92.35,1.83,1.83,0,0,1-1.47-.3,2.25,2.25,0,0,1-.81-1.36l-.05-.29,0-.28a2.24,2.24,0,0,1,.33-1.53,1.85,1.85,0,0,1,1.28-.77,1.83,1.83,0,0,1,1.54.35,2.47,2.47,0,0,1,.78,1.52l0,.14a.21.21,0,0,1,0,.15.21.21,0,0,1-.13.07L56.4,35v.07a1.62,1.62,0,0,0,.48.87,1,1,0,0,0,.88.25,1.15,1.15,0,0,0,.6-.26,1.32,1.32,0,0,0,.32-.38.29.29,0,0,1,.09-.14.27.27,0,0,1,.13-.05l.41-.07a.3.3,0,0,1,.14,0,.16.16,0,0,1,.07.11A.74.74,0,0,1,59.37,36Zm4.45-.74a1.33,1.33,0,0,1-.54.57,2.42,2.42,0,0,1-.94.33,2.24,2.24,0,0,1-1,0,1.68,1.68,0,0,1-.67-.33.73.73,0,0,1-.27-.37.17.17,0,0,1,0-.14.24.24,0,0,1,.13-.07l.37-.06a.19.19,0,0,1,.17.06,2,2,0,0,0,.5.3,1.26,1.26,0,0,0,.65,0,1.22,1.22,0,0,0,.68-.29.52.52,0,0,0,.19-.52.46.46,0,0,0-.17-.31.88.88,0,0,0-.42-.16c-.19,0-.47-.06-.84-.08a2.19,2.19,0,0,1-1.12-.29,1.08,1.08,0,0,1-.43-.73,1.11,1.11,0,0,1,.08-.64,1.49,1.49,0,0,1,.48-.56,2,2,0,0,1,.85-.33,2.09,2.09,0,0,1,.94,0,1.54,1.54,0,0,1,.64.32.73.73,0,0,1,.25.37.15.15,0,0,1,0,.13.19.19,0,0,1-.12.07l-.36.06a.25.25,0,0,1-.18-.05,1.68,1.68,0,0,0-.27-.21.75.75,0,0,0-.3-.11,1.25,1.25,0,0,0-.47,0,.93.93,0,0,0-.59.27.55.55,0,0,0-.15.49.53.53,0,0,0,.14.28.89.89,0,0,0,.4.16,4.62,4.62,0,0,0,.8.08,2.5,2.5,0,0,1,1.21.3,1,1,0,0,1,.46.74A1.08,1.08,0,0,1,63.82,35.21Z"/><path class="cls-1" d="M15.14,41.31a1.51,1.51,0,0,0-.49-.91,1.22,1.22,0,0,0-1.68.28,1.5,1.5,0,0,0-.17,1l0,.32.06.32a1.49,1.49,0,0,0,.49.91,1.08,1.08,0,0,0,.89.19,1.06,1.06,0,0,0,.78-.47,1.45,1.45,0,0,0,.17-1c0-.06,0-.17,0-.32Z"/></g></g></svg>