<?xml version="1.0" encoding="utf-8"?>
<!-- Generator: Adobe Illustrator 22.0.1, SVG Export Plug-In . SVG Version: 6.00 Build 0)  -->
<svg version="1.1" id="Laag_1" xmlns="http://www.w3.org/2000/svg" xmlns:xlink="http://www.w3.org/1999/xlink" x="0px" y="0px"
	 viewBox="0 0 356.8 143.5" style="enable-background:new 0 0 356.8 143.5;" xml:space="preserve">
<style type="text/css">
	.st0{fill:#FFFFFF;}
	.st1{fill:#61A534;}
</style>
<g>
	<path class="st1" d="M134.6,68.1c0,36.2-29.4,65.6-65.6,65.6c-36.2,0-65.6-29.4-65.6-65.6C3.4,31.9,32.8,2.5,69,2.5
		C105.2,2.5,134.6,31.9,134.6,68.1z M42.9,53.4h12c0.4,0,0.6-0.3,0.7-0.7c1-6.6,6.6-11.6,13.5-11.6c6.8,0,12.5,5,13.5,11.6
		c0,0.4,0.3,0.7,0.7,0.7h11.9c0.4,0,0.7-0.3,0.7-0.7c-1-13.9-12.6-24.9-26.8-24.9c-14.2,0-25.8,11-26.8,24.9
		C42.2,53.1,42.5,53.4,42.9,53.4z M81.9,78.3c7.8-4.3,13.2-12.2,13.9-21.6c0-0.4-0.3-0.7-0.7-0.7h-12c-0.4,0-0.6,0.3-0.7,0.7
		c-1,6.6-6.6,11.6-13.5,11.6c-6.8,0-12.5-5-13.5-11.6c0-0.4-0.3-0.7-0.7-0.7h-12c-0.4,0-0.7,0.3-0.7,0.7c0.7,9.3,6.1,17.3,13.9,21.6
		c-8.1,4.5-13.7,13-14,22.9c0,0.4,0.3,0.7,0.7,0.7h11.9c0.4,0,0.7-0.3,0.7-0.7c0.4-7.2,6.3-13,13.6-13c7.3,0,13.3,5.7,13.6,13
		c0,0.4,0.3,0.7,0.7,0.7h11.9c0.4,0,0.7-0.3,0.7-0.7C95.6,91.3,90,82.8,81.9,78.3z"/>
	<g>
		<path class="st1" d="M187,75.2c0,3.9-4,5.3-6.4,5.3c-2.4,0-6.4-1.3-6.4-5.3V53.7c0-3.9,4.1-5.3,6.4-5.3c2.4,0,6.4,1.3,6.4,5.3
			V75.2z M180.6,38c-11.5,0-16.8,8.1-16.8,14.9V76c0,6.8,5.3,14.9,16.8,14.9c11.5,0,16.8-8.1,16.8-14.9V52.9
			C197.4,46.1,192.1,38.1,180.6,38z"/>
		<polygon class="st1" points="254.2,90 254.2,69.9 269.7,69.9 269.7,59.6 254.3,59.6 254.3,49.3 272.2,49.3 272.2,39 243.9,39 
			243.9,90 		"/>
		<path class="st1" d="M289.8,54.9l4.1,16.1h-8.4L289.8,54.9z M298.9,90h10.3l-13.5-51h-12.1l-13.3,51h10.4l2.4-9h13.5L298.9,90z"/>
		<polygon class="st1" points="225.3,64.4 238.6,39 226.6,39 219.3,53.8 212.1,39 200.1,39 213.3,64.4 200,90 212.2,90 219.3,75.2 
			226.5,90 238.6,90 		"/>
		<polygon class="st1" points="342.6,39 333.5,58.6 324.2,39 313.6,39 313.6,90 323.7,90 323.7,61 330.2,74.5 336.7,74.5 343.2,61 
			343.2,90 353.4,90 353.4,39 		"/>
	</g>
	<g>
		<path class="st1" d="M168.2,115.7v8.7h11.2v3h-11.2v13.2h-3v-27.9h15v3H168.2z"/>
		<path class="st1" d="M200.2,140.6h-3v-2c-0.9,1.3-3.1,2.3-5.4,2.3c-3.4,0-6.8-2-6.8-6.7c0-3.8,2.8-5.8,6.6-5.8h5.7v-2
			c0-3-1.8-3.9-4.2-3.9c-2.2,0-4.2,1-4.3,3.8h-2.9c0.2-4.9,4.1-6.7,7.2-6.7c3.5,0,7.2,1.7,7.2,6.6V140.6z M197.2,131.2h-5.6
			c-2.2,0-3.7,0.9-3.7,3c0,3,2.2,3.8,4.4,3.8c2.5,0,5-1.6,5-4.4V131.2z"/>
		<path class="st1" d="M207.2,116.7v-4.2h3.6v4.2H207.2z M207.5,140.6V120h2.9v20.6H207.5z"/>
		<path class="st1" d="M224.5,123c-1.6,0-3.6,1.2-3.6,4.5v13.1h-2.9v-20.5h2.9v1.9c1-1.2,2.5-1.9,3.7-1.9h1.6v2.9H224.5z"/>
		<path class="st1" d="M248.6,115.7v24.9h-3v-24.9h-6.8v-3h16.6v3H248.6z"/>
		<path class="st1" d="M265.5,123c-1.6,0-3.6,1.2-3.6,4.5v13.1h-2.9v-20.5h2.9v1.9c1-1.2,2.5-1.9,3.7-1.9h1.6v2.9H265.5z"/>
		<path class="st1" d="M286.7,140.6h-3v-2c-0.9,1.3-3.1,2.3-5.4,2.3c-3.4,0-6.8-2-6.8-6.7c0-3.8,2.8-5.8,6.6-5.8h5.7v-2
			c0-3-1.8-3.9-4.2-3.9c-2.2,0-4.2,1-4.3,3.8h-2.9c0.2-4.9,4.1-6.7,7.2-6.7c3.5,0,7.2,1.7,7.2,6.6V140.6z M283.7,131.2h-5.6
			c-2.2,0-3.7,0.9-3.7,3c0,3,2.2,3.8,4.4,3.8c2.5,0,5-1.6,5-4.4V131.2z"/>
		<path class="st1" d="M293.3,127.1c0-4.6,2.9-7.4,7.5-7.4c1.8,0,3.6,0.7,4.6,2v-9h3v27.9h-3V139c-0.8,1.2-2.9,2-4.6,2
			c-4.5,0-7.5-2.9-7.5-7.4V127.1z M296.2,133.5c0,2.8,1.7,4.5,4.6,4.5c3.8,0,4.6-2.5,4.6-4.5v-6.4c0-2.9-1.7-4.5-4.6-4.5
			c-3.8,0-4.6,2.4-4.6,4.5V133.5z"/>
		<path class="st1" d="M330.5,131.2h-12.4v2.3c0,2,0.9,4.5,4.7,4.5c2.7,0,4.4-1.5,4.7-4.2h3c-0.4,4.3-3.3,7.1-7.6,7.1
			c-4.7,0-7.7-2.9-7.7-7.4v-6.4c0-4.5,3.1-7.4,7.7-7.4c4.6,0,7.7,2.8,7.7,7.4V131.2z M327.5,127.1c0-2.1-0.9-4.5-4.7-4.5
			c-2.9,0-4.7,1.6-4.7,4.5v1.3h9.4V127.1z"/>
	</g>
</g>
</svg>
